#!OML:ASF F:\VICON\USERDATA\INSTALL\rory3\rory3.ASF
:FULLY-SPECIFIED
:DEGREES
587
root 0.442277 20.7421 -1.21436 -168.882 -28.0676 -163.15
lowerback 5.5018 -7.85353 22.0139
upperback -6.72774 -9.12557 10.0453
thorax -12.4154 -6.19877 1.20458
lowerneck -18.6905 -2.40766 -6.45207
upperneck 32.081 2.2613 -3.53803
head 14.1846 0.448395 0.270399
rclavicle 5.36719e-014 -4.29375e-014
rhumerus -18.9609 -46.1293 13.5162
rradius 13.9159
rwrist 57.5113
rhand 15.8439 -11.9308
rfingers 7.12502
rthumb 40.6454 -36.9589
lclavicle 5.36719e-014 -4.29375e-014
lhumerus 82.1878 -43.5903 -32.1169
lradius 38.5688
lwrist -24.7867
lhand 20.3862 23.4467
lfingers 7.12502
lthumb 44.8947 46.9876
rfemur -91.8345 -23.1427 360.114
rtibia 69.375
rfoot 29.3049 -30.8355
rtoes 40.5009
lfemur -3.64565 -1.57171 2.42622
ltibia 23.6548
lfoot -12.4987 40.3022
ltoes 41.1591
588
root 0.483637 20.7982 -1.43993 -168.544 -27.7893 -165.846
lowerback 4.01726 -7.96237 18.9542
upperback -5.22339 -9.93734 9.56064
thorax -9.39021 -6.13137 1.60833
lowerneck -19.3644 -2.23806 -6.38799
upperneck 30.9136 2.09337 -3.32192
head 13.8073 0.340788 0.295325
rclavicle 2.90226e-014 -3.49861e-014
rhumerus -25.3469 -57.7655 20.6371
rradius 13.8241
rwrist 68.3295
rhand 13.1553 -11.5459
rfingers 7.12502
rthumb 38.1125 -37.3145
lclavicle 2.90226e-014 -3.49861e-014
lhumerus 78.6984 -41.2112 -28.531
lradius 35.5123
lwrist -28.3165
lhand 19.2394 24.5383
lfingers 7.12502
lthumb 43.8259 48.4858
rfemur -89.3175 -22.7701 352.346
rtibia 65.0596
rfoot 17.7623 -38.4271
rtoes 47.1219
lfemur 0.283599 -2.35192 1.18016
ltibia 23.4244
lfoot 1.948 45.6805
ltoes 36.2143
589
root 0.515708 20.9262 -1.6859 -168.757 -27.6667 -168.379
lowerback 5.12482 -8.29106 17.1441
upperback -5.72967 -9.96648 8.27106
thorax -10.5648 -6.02311 1.38071
lowerneck -17.5824 -2.27853 -6.06683
upperneck 31.2749 1.87629 -2.97917
head 13.57 0.424635 0.358055
rclavicle -1.22849e-013 -4.77083e-014
rhumerus -28.4224 -56.4176 23.7628
rradius 13.9562
rwrist 69.4666
rhand 10.8809 -10.8594
rfingers 7.12502
rthumb 35.9614 -37.1853
lclavicle -1.22849e-013 -4.77083e-014
lhumerus 77.1987 -41.714 -25.848
lradius 33.3428
lwrist -31.6872
lhand 17.7768 25.6993
lfingers 7.12502
lthumb 42.4587 50.1338
rfemur -85.1979 -21.0484 343.287
rtibia 60.7686
rfoot 2.99255 -42.4983
rtoes 51.1366
lfemur 5.17666 -3.59321 0.119931
ltibia 22.1919
lfoot 22.8103 44.7828
ltoes 27.5524
590
root 0.53886 21.0431 -1.92772 -169.323 -27.4156 -170.298
lowerback 6.01729 -8.51042 15.7499
upperback -5.79798 -10.0448 7.1612
thorax -11.1427 -5.93994 1.04512
lowerneck -17.271 -2.23043 -5.37416
upperneck 32.2005 1.94554 -2.95354
head 13.8994 0.591234 0.278006
rclavicle -8.62725e-014 2.94201e-014
rhumerus -31.3145 -55.8532 26.8123
rradius 14.0593
rwrist 70.1801
rhand 8.96771 -10.0247
rfingers 7.12502
rthumb 34.1466 -36.7758
lclavicle -8.62725e-014 2.94201e-014
lhumerus 75.5497 -41.5294 -23.5421
lradius 31.4598
lwrist -33.9216
lhand 16.0311 27.359
lfingers 7.12502
lthumb 40.8213 52.3319
rfemur -80.6593 -17.492 333.297
rtibia 56.6867
rfoot -21.8819 -40.252
rtoes 56.9326
lfemur 10.4031 -4.89501 -0.515121
ltibia 20.6378
lfoot 36.981 40.5479
ltoes 22.64
591
root 0.498062 21.2769 -2.13365 -169.527 -26.8367 -171.819
lowerback 6.10277 -8.45825 14.6659
upperback -5.55543 -10.0005 6.21901
thorax -10.884 -5.81074 0.514456
lowerneck -17.1207 -2.29163 -5.36015
upperneck 32.5271 1.66956 -2.28603
head 13.9972 0.576584 0.501446
rclavicle 1.39149e-015 4.37326e-014
rhumerus -36.93 -58.7632 33.1206
rradius 14.0546
rwrist 73.8203
rhand 7.75081 -9.12299
rfingers 7.12502
rthumb 32.9901 -36.1253
lclavicle 1.39149e-015 4.37326e-014
lhumerus 73.7741 -40.5558 -21.5312
lradius 29.9389
lwrist -35.9856
lhand 14.3877 28.4225
lfingers 7.12502
lthumb 39.275 53.8632
rfemur -76.4578 -11.8027 322.176
rtibia 53.0181
rfoot -41.2986 -29.8736
rtoes 60.2115
lfemur 15.6012 -5.53111 -1.23489
ltibia 17.8413
lfoot 40.7482 40.534
ltoes 20.6588
592
root 0.500802 21.3637 -2.3692 -169.835 -26.4514 -173.32
lowerback 5.46519 -8.42585 13.3069
upperback -4.72052 -10.1865 5.35093
thorax -9.48706 -5.73473 0.0415121
lowerneck -18.5254 -2.15509 -4.59781
upperneck 33.3035 1.75019 -2.26826
head 14.653 0.670873 0.396003
rclavicle -2.62396e-014 -5.32743e-014
rhumerus -40.9607 -59.3181 37.4206
rradius 13.9418
rwrist 74.2283
rhand 7.36369 -8.6783
rfingers 7.12502
rthumb 32.6218 -35.7575
lclavicle -2.62396e-014 -5.32743e-014
lhumerus 71.8888 -38.6223 -19.9238
lradius 28.9536
lwrist -38.2041
lhand 13.6591 28.6202
lfingers 7.12502
lthumb 38.588 54.257
rfemur -72.7363 -2.93951 307.712
rtibia 49.861
rfoot -57.2451 -10.874
rtoes 62.3006
lfemur 21.0966 -6.10278 -1.48714
ltibia 14.802
lfoot 40.85 44.3097
ltoes 23.8585
593
root 0.515056 21.4269 -2.62142 -169.805 -26.1382 -175.31
lowerback 4.5597 -8.45648 11.3001
upperback -4.0024 -10.5123 4.36404
thorax -8.00538 -5.71334 -0.203806
lowerneck -19.2267 -2.07486 -4.33206
upperneck 33.7619 1.56012 -1.55246
head 15.0081 0.702019 0.614641
rclavicle 5.36719e-014 4.21423e-014
rhumerus -41.1178 -56.8373 37.3714
rradius 13.8133
rwrist 71.218
rhand 7.26408 -8.74909
rfingers 7.12502
rthumb 32.527 -35.8479
lclavicle 5.36719e-014 4.21423e-014
lhumerus 70.7243 -37.0089 -19.7546
lradius 28.2851
lwrist -39.6774
lhand 13.3981 29.0313
lfingers 7.12502
lthumb 38.3417 54.7367
rfemur -70.8563 8.17385 291.377
rtibia 47.4772
rfoot -68.6447 8.08147
rtoes 62.7628
lfemur 26.3042 -6.75481 -2.03644
ltibia 11.6552
lfoot 39.5813 48.7637
ltoes 27.3052
594
root 0.550521 21.4487 -2.89013 -169.408 -25.9681 -177.59
lowerback 3.69192 -8.55165 8.9835
upperback -3.73694 -10.8808 3.29843
thorax -7.01337 -5.75402 -0.273234
lowerneck -18.5389 -2.02328 -3.68985
upperneck 33.5613 1.26196 -1.30491
head 14.7508 0.709751 0.549601
rclavicle 9.30809e-014 1.47101e-014
rhumerus -42.1876 -55.624 38.7281
rradius 13.789
rwrist 70.3673
rhand 6.91976 -8.22672
rfingers 7.12502
rthumb 32.1993 -35.3925
lclavicle 9.30809e-014 1.47101e-014
lhumerus 69.9372 -36.0725 -20.2182
lradius 27.8118
lwrist -40.5075
lhand 13.6025 29.5095
lfingers 7.12502
lthumb 38.5346 55.1612
rfemur -70.9371 18.5971 275.236
rtibia 45.4884
rfoot -79.4369 25.5147
rtoes 63.0056
lfemur 30.2357 -7.21454 -2.41862
ltibia 9.96396
lfoot 38.5324 50.8834
ltoes 29.9044
595
root 0.574215 21.4513 -3.13808 -168.187 -25.9131 -180.078
lowerback 2.37997 -8.59339 6.67713
upperback -3.78004 -11.1882 2.33985
thorax -6.07279 -5.80851 -0.269889
lowerneck -18.8063 -1.86574 -3.61116
upperneck 34.0702 1.37581 -0.758015
head 15.0374 0.861435 0.795878
rclavicle -2.93207e-014 -1.78906e-014
rhumerus -44.0615 -55.4553 41.4543
rradius 13.8328
rwrist 70.7674
rhand 6.47701 -7.56913
rfingers 7.12502
rthumb 31.7777 -34.8194
lclavicle -2.93207e-014 -1.78906e-014
lhumerus 68.9853 -34.9918 -20.1388
lradius 27.3287
lwrist -40.8839
lhand 15.1086 29.3588
lfingers 7.12502
lthumb 39.9539 54.5988
rfemur -157.6 -24.3985 443.295
rtibia 44.4287
rfoot 62.2929 -0.291347
rtoes 63.0836
lfemur 32.8499 -7.68379 -2.92364
ltibia 8.76381
lfoot 38.7707 51.3703
ltoes 31.5179
